# xmcd CD database file
#
# Track frame offsets:
#	150
#	13723
#	28989
#	53620
#	64528
#	79969
#	98513
#	108641
#	118262
#	134112
#	144266
#	168670
#	193386
#
# Disc length: 2764 seconds
#
# Revision: 0
# Processed by: cddbd v1.5.2PL0 Copyright (c) Steve Scherf et al.
# Submitted via: CDex 1.51
#
DISCID=be0aca0d
DTITLE=Carolyn Joyce - This Is..., w Tony Pacini Trio
DYEAR=2007
DGENRE=Jazz
TTITLE0=Just Squeeze Me
TTITLE1=Without a Song
TTITLE2=Born To Be Blue
TTITLE3=Summer Me, Winter Me
TTITLE4=Morning
TTITLE5=You Better Go Now
TTITLE6=Pick Yourself Up
TTITLE7=Give Me the Simple Life
TTITLE8=The Things That Might Have Been
TTITLE9=This Is New
TTITLE10=Talk To Me Baby
TTITLE11=A Flower is a Lovesome Thing
TTITLE12=Goodbye Sadness
EXTD=YEAR: 2007
EXTT0=
EXTT1=
EXTT2=
EXTT3=
EXTT4=
EXTT5=
EXTT6=
EXTT7=
EXTT8=
EXTT9=
EXTT10=
EXTT11=
EXTT12=
PLAYORDER=
